<svg width="512" height="512" viewBox="0 0 48 48" fill="none" xmlns="http://www.w3.org/2000/svg">
  <defs>
    <linearGradient id="bot-gradient" x1="12" y1="6" x2="38" y2="42" gradientUnits="userSpaceOnUse">
      <stop stop-color="#A4ECFF"/>
      <stop offset="1" stop-color="#39AEEF"/>
    </linearGradient>
  </defs>
  <path d="M24 3C18.7 9.8 10.4 18.6 10.4 28.2C10.4 36 16.5 42.2 24 42.2S37.6 36 37.6 28.2C37.6 18.6 29.3 9.8 24 3Z" fill="url(#bot-gradient)" stroke="#D8F7FF" stroke-width="1.7" stroke-linejoin="round"/>
  <rect x="14.3" y="17.7" width="19.4" height="18.5" rx="6.2" fill="#082947" fill-opacity="0.2" stroke="#F2FCFF" stroke-width="1.2"/>
  <path d="M17.2 22.2C18.9 20.7 21 20.5 22.8 21.7M27 20.7C28.8 19.9 30.8 20.5 31.9 21.8" stroke="#082947" stroke-width="1.8" stroke-linecap="round"/>
  <circle cx="20.2" cy="26.3" r="2.6" fill="#082947"/>
  <circle cx="29.2" cy="25.4" r="2.6" fill="#082947"/>
  <circle cx="21" cy="25.6" r="0.9" fill="#E8FAFF"/>
  <circle cx="30" cy="24.6" r="0.9" fill="#E8FAFF"/>
  <path d="M19.5 30.8C21.7 34 26.3 34 28.5 30.8" stroke="#082947" stroke-width="2" stroke-linecap="round"/>
  <path d="M14.2 25.3H11.1C9.9 25.3 8.9 26.3 8.9 27.5V29.7C8.9 30.9 9.9 31.9 11.1 31.9H14.2M33.8 25.3H36.9C38.1 25.3 39.1 26.3 39.1 27.5V29.7C39.1 30.9 38.1 31.9 36.9 31.9H33.8" stroke="#A4ECFF" stroke-width="1.8" stroke-linecap="round"/>
  <circle cx="11.1" cy="28.6" r="1" fill="#E8FAFF"/>
  <circle cx="36.9" cy="28.6" r="1" fill="#E8FAFF"/>
  <circle cx="39.3" cy="14.3" r="2.1" fill="#73D6FF" fill-opacity="0.85"/>
  <circle cx="43.1" cy="9.5" r="1.5" fill="#A4ECFF"/>
  <path d="M15.4 17.9C17.2 14.7 19.6 11.6 21.7 8.9" stroke="#F2FCFF" stroke-width="1.3" stroke-linecap="round" stroke-opacity="0.55"/>
</svg>
